<!DOCTYPE svg PUBLIC "-//W3C//DTD SVG 1.1//EN" "http://www.w3.org/Graphics/SVG/1.1/DTD/svg11.dtd">
<!-- Uploaded to: SVG Repo, www.svgrepo.com, Transformed by: SVG Repo Mixer Tools -->
<svg version="1.1" id="_x32_" xmlns="http://www.w3.org/2000/svg" xmlns:xlink="http://www.w3.org/1999/xlink" viewBox="-51.2 -51.2 614.40 614.40" xml:space="preserve" width="800px" height="800px" fill="#000000">
<g id="SVGRepo_bgCarrier" stroke-width="0">
<path transform="translate(-51.2, -51.2), scale(19.2)" d="M16,25.502290420234203C17.93412018602046,25.02852438345728,19.820091221503354,24.640002387526724,21.496264998758267,23.564959774409395C23.267162464571253,22.429164509596042,25.10093227120149,21.16725256260604,25.833820613861917,19.195202006664907C26.580997202057794,17.184704744845867,25.722672100951208,15.057222000027457,25.44863470059206,12.929952483267932C25.096070589177522,10.1931038416861,25.736460641523838,7.131742618940432,24.003188266323633,4.984556364105119C22.105413020406974,2.6335831523337805,19.020576598972113,1.1560688477286083,16.000000000000004,1.2249378263950348C13.00422345670132,1.293241365169726,9.887072086618435,2.8287399838985086,8.257638796229655,5.343554017373062C6.754756265339857,7.663053748745089,8.29237193791057,10.673894200936708,8.091652769607435,13.430422220196501C7.956019750005159,15.293105401036723,7.270769791508887,16.967231092194428,7.275258142745651,18.834840473969603C7.281869102468125,21.585670288512343,5.938198114124248,25.170248825317316,8.123880790942104,26.840548082823C10.29285142138688,28.49807599024002,13.348581199357476,26.151759975484964,16,25.502290420234203" fill="#ff8585" strokewidth="0"/>
</g>
<g id="SVGRepo_tracerCarrier" stroke-linecap="round" stroke-linejoin="round"/>
<g id="SVGRepo_iconCarrier"> <style type="text/css"> .st0{fill:#000000;} </style> <g> <path class="st0" d="M512,0H0v40h16v296h480V40h16V0z M464,304H48V40h416V304z"/> <rect x="240" y="352" class="st0" width="32" height="160"/> <polygon class="st0" points="113.273,512 145.273,512 212.179,352 180.179,352 "/> <polygon class="st0" points="299.82,352 366.726,512 398.726,512 331.82,352 "/> </g> </g>
</svg>