<svg id="Layer_1" data-name="Layer 1" xmlns="http://www.w3.org/2000/svg" viewBox="0 0 767.59 786.17"><defs><style>.cls-1{fill:#fff;}</style></defs><g id="SVGRepo_iconCarrier" data-name="SVGRepo iconCarrier"><path class="cls-1" d="M394.66,18,299.89,238.63H205.12a222.94,222.94,0,0,0-46,4.32l39.32-94.38L200,145l2.36-6.3a61.87,61.87,0,0,1,3.15-7.07C251.13,25.89,302.25-7.15,394.66,18Z" transform="translate(-13.19 -10)"/><path class="cls-1" d="M661.74,249.15l-.78-.39a263.17,263.17,0,0,0-72-10.22H342.83L431.31,32.88l1.18-2.76c5.5,2,11.4,4.72,17.3,6.69l86.9,36.57c48.37,20.05,82.19,40.89,103,66.06,3.54,4.72,6.69,9.05,9.83,14.16a59.94,59.94,0,0,1,7.87,16.91A53,53,0,0,1,661,180.73C666.86,200.79,667.25,223.59,661.74,249.15Z" transform="translate(-13.19 -10)"/><path class="cls-1" d="M417.48,625.42h9.83c11.8,0,21.63-10.61,21.63-23.59,0-16.52-4.72-18.88-14.94-22.81l-16.52-5.9Z" transform="translate(-13.19 -10)"/><path class="cls-1" d="M644.33,305.42a198.94,198.94,0,0,0-55.45-7.87H205.09a187.71,187.71,0,0,0-75.5,15.34c-68.43,29.49-116.4,97.52-116.4,176.56v76.68a222.07,222.07,0,0,0,2,27.92q13,187.58,200.54,200.16a212.15,212.15,0,0,0,27.92,2H550.35C695.84,796.17,772.53,727,780,589.33c.39-7.47.78-15.33.78-23.2V489.45C780.78,402.55,723,329.4,644.33,305.42Zm-197,235.15c18.09,6.29,42.47,19.66,42.47,61.35,0,35.78-27.92,64.49-62.52,64.49h-9.84v8.65a20.45,20.45,0,1,1-40.89,0v-8.65H373c-37.75,0-68.82-31.86-68.82-71.18a20.45,20.45,0,0,1,40.9,0c0,16.52,12.58,30.28,27.92,30.28h3.54V559.05l-29.89-10.61c-18.09-6.3-42.47-19.67-42.47-61.35,0-35.78,27.92-64.49,62.53-64.49h9.83V414a20.45,20.45,0,1,1,40.89,0v8.65H421c37.75,0,68.82,31.85,68.82,71.18a20.45,20.45,0,0,1-40.9,0c0-16.52-12.58-30.28-27.92-30.28h-3.54V530Z" transform="translate(-13.19 -10)"/><path class="cls-1" d="M345.13,487c0,16.52,4.72,18.88,14.95,22.81l16.51,5.9v-52.3h-9.83C354.57,463.45,345.13,474.07,345.13,487Z" transform="translate(-13.19 -10)"/></g></svg>